<svg xmlns="http://www.w3.org/2000/svg" viewBox="0 0 800 800" role="img" aria-labelledby="title description">
  <title id="title">صورة منتج غير متوفرة</title>
  <desc id="description">رسم بديل بسيط لمنتج إنارة</desc>
  <rect width="800" height="800" fill="#f5f1e8"/>
  <circle cx="400" cy="330" r="150" fill="#e9dfc8"/>
  <path d="M400 180c-83 0-150 67-150 150 0 53 28 100 70 127v58h160v-58c42-27 70-74 70-127 0-83-67-150-150-150Z" fill="#d8a72f"/>
  <path d="M330 515h140v38c0 37-30 67-67 67h-6c-37 0-67-30-67-67v-38Z" fill="#78684c"/>
  <path d="M310 330c0-50 40-90 90-90" fill="none" stroke="#fff8df" stroke-linecap="round" stroke-width="24"/>
  <text x="400" y="700" text-anchor="middle" font-family="Tahoma, sans-serif" font-size="34" font-weight="700" fill="#665a46">صورة المنتج غير متوفرة</text>
</svg>
